# xmcd
#
# Track frame offsets: 
#        150
#        16644
#        29059
#        50696
#        57665
#        72520
#        93270
#        117937
#        147392
#        166063
#        184768
#        203568
#        221368
#        237161
#        255692
#
# Disc length: 3784 seconds
#
# Revision: 3
# Processed by: cddbd v1.5.2PL0 Copyright (c) Steve Scherf et al.
# Submitted via: ExactAudioCopy v0.99pb5
#
DISCID=d60ec60f
DTITLE=Various Artist - Uncut, The Playlist July 2006
DYEAR=2006
DGENRE=Rock
TTITLE0=New York Dolls - Dance Like A Monkey
TTITLE1=John Cale - Hanky Panky Nohow
TTITLE2=Midlake - Roscoe
TTITLE3=Minutemen - Political Song For Michael Jackson To Sing
TTITLE4=Frank Black - Elijah
TTITLE5=Judee Sill - The Kiss
TTITLE6=Dave Alvin - Sonora's Death Row
TTITLE7=Scritti Politti - Dr Abernathy
TTITLE8=The Triffids - Wide Open Road
TTITLE9=Plan B - Kidz (Acoustic)
TTITLE10=The Feeling - Anyone
TTITLE11=Billy Bragg - A Lover Sings (Alternative 1986 Version)
TTITLE12=The 1990s - You're Supposed To Be My Friend (Demo)
TTITLE13=The Walker Brothers - After The Lights Go Out
TTITLE14=Howlin' Rain - Calling Lightning With A Scythe
EXTD=plexi
EXTT0=
EXTT1=
EXTT2=
EXTT3=
EXTT4=
EXTT5=
EXTT6=
EXTT7=
EXTT8=
EXTT9=
EXTT10=
EXTT11=
EXTT12=
EXTT13=
EXTT14=
PLAYORDER=
